<svg xmlns="http://www.w3.org/2000/svg" xmlns:xlink="http://www.w3.org/1999/xlink" width="500" zoomAndPan="magnify" viewBox="0 0 375 374.999991" height="500" preserveAspectRatio="xMidYMid meet" version="1.0"><defs><clipPath id="ae4861f1ff"><path d="M 15.21875 15.21875 L 359.78125 15.21875 L 359.78125 359.78125 L 15.21875 359.78125 Z M 15.21875 15.21875 " clip-rule="nonzero"/></clipPath><clipPath id="980d53f2ed"><path d="M 187.5 15.21875 C 92.351562 15.21875 15.21875 92.351562 15.21875 187.5 C 15.21875 282.648438 92.351562 359.78125 187.5 359.78125 C 282.648438 359.78125 359.78125 282.648438 359.78125 187.5 C 359.78125 92.351562 282.648438 15.21875 187.5 15.21875 Z M 187.5 15.21875 " clip-rule="nonzero"/></clipPath><clipPath id="6c810f5f7a"><path d="M 177 36.769531 L 195 36.769531 L 195 86 L 177 86 Z M 177 36.769531 " clip-rule="nonzero"/></clipPath><clipPath id="b82a1ff4b5"><path d="M 130 291 L 160 291 L 160 337.519531 L 130 337.519531 Z M 130 291 " clip-rule="nonzero"/></clipPath></defs><g clip-path="url(#ae4861f1ff)"><g clip-path="url(#980d53f2ed)"><path fill="#94be57" d="M 15.21875 15.21875 L 359.78125 15.21875 L 359.78125 359.78125 L 15.21875 359.78125 Z M 15.21875 15.21875 " fill-opacity="1" fill-rule="nonzero"/></g></g><g clip-path="url(#6c810f5f7a)"><path fill="#ffffff" d="M 178.582031 45.15625 C 178.203125 55.765625 177.828125 66.371094 177.449219 76.976562 C 177.296875 81.269531 181.332031 85.371094 185.652344 85.179688 C 190.226562 84.972656 193.6875 81.574219 193.851562 76.976562 C 194.230469 66.371094 194.609375 55.765625 194.984375 45.15625 C 195.136719 40.867188 191.105469 36.765625 186.785156 36.957031 C 182.210938 37.164062 178.746094 40.558594 178.582031 45.15625 Z M 178.582031 45.15625 " fill-opacity="1" fill-rule="nonzero"/></g><path fill="#ffffff" d="M 125.703125 68.425781 C 128.601562 73.972656 131.5 79.523438 134.402344 85.070312 C 135.90625 87.957031 140.179688 89.0625 142.90625 87.300781 C 145.847656 85.40625 146.75 81.886719 145.136719 78.796875 C 142.238281 73.246094 139.339844 67.699219 136.441406 62.148438 C 134.933594 59.261719 130.664062 58.160156 127.933594 59.917969 C 124.996094 61.8125 124.089844 65.335938 125.703125 68.425781 Z M 125.703125 68.425781 " fill-opacity="1" fill-rule="nonzero"/><path fill="#ffffff" d="M 87.324219 85.808594 C 93.851562 94.175781 100.378906 102.542969 106.910156 110.910156 C 108.105469 112.449219 110.859375 113.3125 112.707031 113.3125 C 114.71875 113.3125 117.121094 112.421875 118.507812 110.910156 C 119.941406 109.347656 121.007812 107.296875 120.910156 105.109375 C 120.804688 102.792969 119.921875 101.125 118.507812 99.3125 C 111.980469 90.945312 105.449219 82.578125 98.921875 74.210938 C 97.722656 72.671875 94.972656 71.808594 93.125 71.808594 C 91.109375 71.808594 88.707031 72.699219 87.324219 74.210938 C 85.886719 75.773438 84.824219 77.824219 84.921875 80.007812 C 85.027344 82.328125 85.910156 83.996094 87.324219 85.808594 Z M 87.324219 85.808594 " fill-opacity="1" fill-rule="nonzero"/><path fill="#ffffff" d="M 61.730469 137.234375 C 67.519531 139.621094 73.304688 142.007812 79.09375 144.398438 C 80.480469 144.96875 82.652344 144.492188 83.882812 143.769531 C 85.171875 143.015625 86.40625 141.535156 86.742188 140.054688 C 87.101562 138.464844 87.023438 136.675781 86.113281 135.265625 C 85.179688 133.8125 83.984375 133.058594 82.398438 132.40625 C 76.613281 130.019531 70.824219 127.632812 65.035156 125.246094 C 63.652344 124.671875 61.476562 125.148438 60.246094 125.871094 C 58.957031 126.625 57.726562 128.105469 57.390625 129.585938 C 57.027344 131.179688 57.105469 132.964844 58.015625 134.378906 C 58.953125 135.828125 60.148438 136.578125 61.730469 137.234375 Z M 61.730469 137.234375 " fill-opacity="1" fill-rule="nonzero"/><path fill="#ffffff" d="M 41.597656 174.820312 C 51.976562 177.035156 62.355469 179.246094 72.734375 181.460938 C 76.917969 182.351562 81.800781 180.226562 82.824219 175.734375 C 83.761719 171.609375 81.582031 166.601562 77.097656 165.644531 C 66.714844 163.429688 56.339844 161.21875 45.957031 159.003906 C 41.773438 158.113281 36.894531 160.238281 35.871094 164.730469 C 34.929688 168.855469 37.109375 173.863281 41.597656 174.820312 Z M 41.597656 174.820312 " fill-opacity="1" fill-rule="nonzero"/><path fill="#ffffff" d="M 55.578125 231.265625 C 61.546875 229.375 67.511719 227.484375 73.480469 225.59375 C 76.574219 224.609375 78.882812 221.222656 77.824219 217.945312 C 76.816406 214.839844 73.496094 212.550781 70.175781 213.601562 C 64.207031 215.496094 58.238281 217.382812 52.273438 219.277344 C 49.175781 220.257812 46.867188 223.644531 47.929688 226.921875 C 48.933594 230.027344 52.257812 232.316406 55.578125 231.265625 Z M 55.578125 231.265625 " fill-opacity="1" fill-rule="nonzero"/><path fill="#ffffff" d="M 65.976562 272.28125 C 75.347656 267.304688 84.722656 262.332031 94.097656 257.355469 C 97.890625 255.339844 99.371094 249.75 97.039062 246.132812 C 94.550781 242.277344 89.878906 241.035156 85.816406 243.191406 C 76.445312 248.167969 67.070312 253.140625 57.699219 258.117188 C 53.902344 260.132812 52.421875 265.722656 54.753906 269.339844 C 57.242188 273.199219 61.914062 274.4375 65.976562 272.28125 Z M 65.976562 272.28125 " fill-opacity="1" fill-rule="nonzero"/><path fill="#ffffff" d="M 112.488281 306.519531 C 115.847656 301.234375 119.203125 295.949219 122.558594 290.667969 C 124.304688 287.914062 123.222656 283.6875 120.328125 282.160156 C 117.257812 280.535156 113.6875 281.457031 111.824219 284.390625 C 108.464844 289.675781 105.109375 294.960938 101.753906 300.246094 C 100.007812 302.996094 101.089844 307.222656 103.984375 308.75 C 107.054688 310.375 110.625 309.457031 112.488281 306.519531 Z M 112.488281 306.519531 " fill-opacity="1" fill-rule="nonzero"/><g clip-path="url(#b82a1ff4b5)"><path fill="#ffffff" d="M 146.757812 331.066406 C 150.738281 321.230469 154.71875 311.390625 158.703125 301.554688 C 159.449219 299.714844 158.832031 296.871094 157.875 295.234375 C 156.882812 293.53125 154.929688 291.910156 152.976562 291.464844 C 150.875 290.988281 148.519531 291.089844 146.65625 292.292969 C 144.746094 293.523438 143.734375 295.101562 142.886719 297.191406 C 138.90625 307.03125 134.921875 316.867188 130.9375 326.703125 C 130.195312 328.542969 130.808594 331.390625 131.765625 333.023438 C 132.761719 334.726562 134.710938 336.347656 136.667969 336.792969 C 138.765625 337.273438 141.121094 337.167969 142.988281 335.96875 C 144.894531 334.738281 145.910156 333.160156 146.757812 331.066406 Z M 146.757812 331.066406 " fill-opacity="1" fill-rule="nonzero"/></g><path fill="#ffffff" d="M 204.300781 329.027344 C 203.472656 322.820312 202.648438 316.613281 201.820312 310.410156 C 201.59375 308.691406 201.277344 307.289062 200 306.011719 C 198.921875 304.933594 197.152344 304.121094 195.601562 304.191406 C 192.601562 304.324219 188.925781 306.957031 189.386719 310.40625 C 190.214844 316.613281 191.039062 322.820312 191.863281 329.023438 C 192.09375 330.742188 192.40625 332.144531 193.6875 333.421875 C 194.765625 334.5 196.535156 335.3125 198.082031 335.242188 C 201.085938 335.109375 204.757812 332.480469 204.300781 329.027344 Z M 204.300781 329.027344 " fill-opacity="1" fill-rule="nonzero"/><path fill="#ffffff" d="M 246.6875 325.992188 C 243.414062 315.894531 240.140625 305.800781 236.871094 295.703125 C 235.550781 291.632812 231.128906 288.570312 226.78125 289.976562 C 222.707031 291.292969 219.636719 295.695312 221.054688 300.066406 C 224.328125 310.160156 227.601562 320.257812 230.871094 330.351562 C 232.195312 334.425781 236.613281 337.488281 240.960938 336.078125 C 245.035156 334.761719 248.105469 330.363281 246.6875 325.992188 Z M 246.6875 325.992188 " fill-opacity="1" fill-rule="nonzero"/><path fill="#ffffff" d="M 288.644531 285.808594 C 284.019531 281.585938 279.402344 277.363281 274.777344 273.140625 C 272.378906 270.945312 268.328125 270.589844 265.984375 273.140625 C 263.792969 275.53125 263.421875 279.585938 265.984375 281.933594 C 270.609375 286.152344 275.230469 290.378906 279.851562 294.601562 C 282.25 296.792969 286.300781 297.148438 288.644531 294.601562 C 290.835938 292.210938 291.207031 288.148438 288.644531 285.808594 Z M 288.644531 285.808594 " fill-opacity="1" fill-rule="nonzero"/><path fill="#ffffff" d="M 319.011719 256.308594 C 310.015625 250.679688 301.015625 245.046875 292.019531 239.417969 C 288.378906 237.136719 282.824219 238.523438 280.800781 242.359375 C 278.671875 246.390625 279.855469 251.148438 283.742188 253.582031 C 292.738281 259.210938 301.734375 264.839844 310.734375 270.472656 C 314.375 272.75 319.925781 271.363281 321.953125 267.527344 C 324.082031 263.496094 322.898438 258.738281 319.011719 256.308594 Z M 319.011719 256.308594 " fill-opacity="1" fill-rule="nonzero"/><path fill="#ffffff" d="M 325.296875 198.859375 C 319.042969 198.597656 312.785156 198.332031 306.53125 198.066406 C 303.28125 197.929688 300.171875 201.023438 300.316406 204.285156 C 300.472656 207.769531 303.046875 210.355469 306.53125 210.5 C 312.785156 210.765625 319.042969 211.027344 325.296875 211.292969 C 328.550781 211.429688 331.660156 208.335938 331.511719 205.078125 C 331.355469 201.589844 328.78125 199.007812 325.296875 198.859375 Z M 325.296875 198.859375 " fill-opacity="1" fill-rule="nonzero"/><path fill="#ffffff" d="M 329.339844 156.941406 C 318.832031 158.410156 308.320312 159.882812 297.808594 161.351562 C 295.925781 161.617188 293.816406 163.566406 292.90625 165.121094 C 291.878906 166.878906 291.441406 169.46875 292.082031 171.441406 C 292.722656 173.425781 293.953125 175.34375 295.851562 176.34375 C 297.9375 177.445312 299.855469 177.496094 302.171875 177.171875 C 312.679688 175.699219 323.191406 174.230469 333.703125 172.757812 C 335.585938 172.496094 337.691406 170.546875 338.601562 168.988281 C 339.632812 167.234375 340.070312 164.640625 339.429688 162.671875 C 338.789062 160.6875 337.558594 158.769531 335.660156 157.769531 C 333.570312 156.667969 331.65625 156.617188 329.339844 156.941406 Z M 329.339844 156.941406 " fill-opacity="1" fill-rule="nonzero"/><path fill="#ffffff" d="M 298.886719 108.113281 C 293.925781 111.929688 288.960938 115.75 284 119.566406 C 282.65625 120.601562 281.613281 121.578125 281.144531 123.28125 C 280.734375 124.769531 280.921875 126.75 281.769531 128.074219 C 283.40625 130.609375 287.519531 132.425781 290.277344 130.304688 C 295.238281 126.484375 300.199219 122.664062 305.160156 118.847656 C 306.503906 117.816406 307.550781 116.839844 308.019531 115.132812 C 308.429688 113.644531 308.242188 111.664062 307.390625 110.34375 C 305.753906 107.804688 301.640625 105.988281 298.886719 108.113281 Z M 298.886719 108.113281 " fill-opacity="1" fill-rule="nonzero"/><path fill="#ffffff" d="M 275.132812 72.863281 C 268.027344 80.746094 260.921875 88.628906 253.8125 96.511719 C 250.941406 99.695312 250.433594 105.007812 253.8125 108.109375 C 256.949219 110.984375 262.34375 111.511719 265.410156 108.109375 C 272.519531 100.226562 279.625 92.34375 286.730469 84.460938 C 289.605469 81.277344 290.109375 75.964844 286.730469 72.863281 C 283.597656 69.988281 278.203125 69.464844 275.132812 72.863281 Z M 275.132812 72.863281 " fill-opacity="1" fill-rule="nonzero"/><path fill="#ffffff" d="M 219.324219 56.617188 C 217.976562 62.734375 216.628906 68.847656 215.285156 74.960938 C 214.585938 78.128906 216.238281 81.835938 219.625 82.609375 C 222.769531 83.324219 226.523438 81.664062 227.273438 78.265625 C 228.621094 72.152344 229.964844 66.039062 231.3125 59.925781 C 232.011719 56.753906 230.363281 53.050781 226.96875 52.277344 C 223.828125 51.5625 220.070312 53.222656 219.324219 56.617188 Z M 219.324219 56.617188 " fill-opacity="1" fill-rule="nonzero"/><path fill="#ffffff" d="M 268.0625 146.257812 C 257.300781 129.199219 238.082031 120.449219 220.394531 124.121094 C 207.855469 126.726562 196.253906 135.25 188.699219 147.414062 C 181.148438 135.25 169.546875 126.726562 157.003906 124.121094 C 139.316406 120.449219 120.101562 129.199219 109.335938 146.257812 C 98.574219 163.3125 96.972656 187.957031 105.746094 206.550781 C 112.5 220.871094 124.253906 230.714844 135.621094 240.066406 C 151.175781 252.859375 173.148438 265.652344 188.699219 278.449219 C 204.253906 265.652344 226.226562 252.859375 241.777344 240.066406 C 253.144531 230.714844 264.898438 220.871094 271.65625 206.550781 C 280.425781 187.957031 278.824219 163.3125 268.0625 146.257812 Z M 268.0625 146.257812 " fill-opacity="1" fill-rule="nonzero"/></svg>